<?xml version="1.0" standalone="no"?><!DOCTYPE svg PUBLIC "-//W3C//DTD SVG 1.1//EN" "http://www.w3.org/Graphics/SVG/1.1/DTD/svg11.dtd"><svg t="1591001164195" class="icon" viewBox="0 0 1024 1024" version="1.1" xmlns="http://www.w3.org/2000/svg" p-id="3460" xmlns:xlink="http://www.w3.org/1999/xlink" width="200" height="200"><defs><style type="text/css"></style></defs><path d="M838.4 693.76A366.528 366.528 0 0 0 896 496C896 293.088 730.912 128 528 128S160 293.088 160 496 325.088 864 528 864a365.76 365.76 0 0 0 143.52-29.024c4.928-2.08 10.304-2.848 15.648-2.368l157.088 15.584-10.784-134.656a31.904 31.904 0 0 1 4.928-19.776zM960 496a430.72 430.72 0 0 1-61.888 222.912l12.992 162.336a31.936 31.936 0 0 1-35.04 34.432l-187.232-18.592A429.92 429.92 0 0 1 528 928C289.76 928 96 734.24 96 496 96 257.792 289.76 64 528 64 766.208 64 960 257.792 960 496zM536.16 640a32 32 0 1 1 0 64 32 32 0 0 1 0-64z m-0.512-320c39.264 0 70.496 11.008 93.696 33.024 23.168 22.016 34.816 47.68 34.816 76.928 0 16.16-4.288 31.488-12.8 45.92-8.512 14.432-26.72 34.112-54.624 59.008-14.432 12.896-23.392 23.232-26.912 31.104a52.96 52.96 0 0 0-2.752 12.8 33.248 33.248 0 0 1-33.024 29.216 28.832 28.832 0 0 1-28.704-31.648c1.92-19.712 4.384-32.768 7.424-39.104 6.656-13.92 19.968-29.6 39.904-47.008 19.968-17.408 31.872-28.8 35.776-34.208 6.016-8.544 9.024-17.92 9.024-28.16a48.96 48.96 0 0 0-15.936-36.704c-10.624-10.208-24.96-15.296-42.944-15.296-17.376 0-31.904 5.312-43.584 15.936-4.48 4.096-9.056 11.2-13.696 21.344-7.392 16-24.32 25.344-41.792 23.04a27.072 27.072 0 0 1-21.888-36.064c7.808-21.6 16.992-37.44 27.616-47.488 22.976-21.76 53.088-32.64 90.4-32.64z" p-id="3461" fill="#ffffff"></path></svg>