<?xml version="1.0" standalone="no"?><!DOCTYPE svg PUBLIC "-//W3C//DTD SVG 1.1//EN" "http://www.w3.org/Graphics/SVG/1.1/DTD/svg11.dtd"><svg t="1591581887173" class="icon" viewBox="0 0 1024 1024" version="1.1" xmlns="http://www.w3.org/2000/svg" p-id="1220" xmlns:xlink="http://www.w3.org/1999/xlink" width="200" height="200"><defs><style type="text/css"></style></defs><path d="M864.5 960c-4.9 0-9.8-1.5-14-4.5L632.8 800H448.5c-13.3 0-24-10.7-24-24s10.7-24 24-24h192c5 0 9.9 1.6 14 4.5l186 132.9V776c0-13.3 10.7-24 24-24h48c30.9 0 56-25.1 56-56V376c0-30.9-25.1-56-56-56h-112c-13.3 0-24-10.7-24-24s10.7-24 24-24h112c57.3 0 104 46.7 104 104v320c0 57.3-46.7 104-104 104h-24v136c0 9-5 17.2-13 21.3-3.5 1.8-7.2 2.7-11 2.7z" fill="#ffffff" p-id="1221"></path><path d="M192.5 864c-3.4 0-6.7-0.7-9.9-2.1-8.6-3.9-14.1-12.4-14.1-21.9V640h-56c-57.3 0-104-46.7-104-104V168c0-57.3 46.7-104 104-104h608c57.3 0 104 46.7 104 104v368c0 57.3-46.7 104-104 104h-263L208.3 858.1c-4.5 3.9-10.1 5.9-15.8 5.9z m-80-752c-30.9 0-56 25.1-56 56v368c0 30.9 25.1 56 56 56h80c13.3 0 24 10.7 24 24v171.1l216.2-189.2c4.4-3.8 10-5.9 15.8-5.9h272c30.9 0 56-25.1 56-56V168c0-30.9-25.1-56-56-56h-608z" fill="#ffffff" p-id="1222"></path></svg>